<svg width="183" height="170" viewBox="0 0 183 170" fill="none" xmlns="http://www.w3.org/2000/svg">
<path d="M131.185 64.9518H128.432C127.074 64.9471 125.735 65.2788 124.533 65.9179C123.332 66.5569 122.303 67.4838 121.539 68.6173C121.444 68.7731 121.337 68.9168 121.254 69.0845L102.354 99.0317L94.8085 111.011L91.0119 117L87.4525 111.286L79.6576 99.0916L60.6746 69.0007C60.6034 68.8929 60.5322 68.7731 60.4492 68.6653C59.6864 67.5217 58.6562 66.5857 57.4497 65.9401C56.2432 65.2944 54.8977 64.9591 53.5322 64.9638H50.8034C54.7762 63.6496 58.1578 60.9536 60.3451 57.3565C62.5325 53.7593 63.3837 49.4948 62.7468 45.3231C62.1099 41.1513 60.0264 37.3435 56.8677 34.5784C53.709 31.8132 49.6804 30.2705 45.5 30.2251C49.3309 21.2505 55.6815 13.6054 63.7675 8.23392C71.8535 2.86248 81.3208 0 91 0C100.679 0 110.146 2.86248 118.232 8.23392C126.318 13.6054 132.669 21.2505 136.5 30.2251C132.309 30.2503 128.263 31.7823 125.09 34.5463C121.916 37.3103 119.821 41.1255 119.181 45.3077C118.541 49.4899 119.398 53.7654 121.598 57.3675C123.798 60.9697 127.196 63.6628 131.185 64.9638V64.9518Z" fill="white"/>
<path d="M99.4884 22.7395C99.4971 24.3201 99.0973 25.8744 98.3304 27.2416L91.7064 38.6408C91.6439 38.7461 91.5574 38.8339 91.4544 38.8965C91.3514 38.9592 91.2352 38.9947 91.1158 39C90.9951 39.0001 90.8764 38.9683 90.771 38.9075C90.6655 38.8467 90.5769 38.759 90.5136 38.6528L83.7623 27.3973C83.0736 26.2409 82.6534 24.9352 82.5348 23.5827C82.4161 22.2302 82.6022 20.8677 83.0784 19.6021C83.5547 18.3364 84.3081 17.2021 85.2796 16.2882C86.251 15.3742 87.4141 14.7055 88.6776 14.3344C89.941 13.9634 91.2705 13.9001 92.5615 14.1496C93.8526 14.3991 95.0702 14.9545 96.1188 15.7723C97.1673 16.5902 98.0183 17.6481 98.605 18.8632C99.1916 20.0782 99.498 21.4173 99.5 22.7754L99.4884 22.7395Z" fill="#9336DC"/>
<path d="M38.4715 137C38.7315 137 38.9415 137.08 39.1015 137.24C39.2815 137.4 39.3715 137.61 39.3715 137.87C39.3715 138.13 39.2815 138.34 39.1015 138.5C38.9415 138.64 38.7315 138.71 38.4715 138.71H32.2615V157.1C32.2615 157.36 32.1715 157.58 31.9915 157.76C31.8115 157.92 31.5915 158 31.3315 158C31.0515 158 30.8215 157.92 30.6415 157.76C30.4815 157.58 30.4015 157.36 30.4015 157.1V138.71H24.1915C23.9315 138.71 23.7115 138.63 23.5315 138.47C23.3715 138.31 23.2915 138.1 23.2915 137.84C23.2915 137.6 23.3715 137.4 23.5315 137.24C23.7115 137.08 23.9315 137 24.1915 137H38.4715ZM53.3034 150.32C53.3034 151.82 52.9734 153.18 52.3134 154.4C51.6534 155.62 50.7434 156.58 49.5834 157.28C48.4234 157.96 47.1334 158.3 45.7134 158.3C44.2934 158.3 43.0034 157.96 41.8434 157.28C40.6834 156.58 39.7734 155.62 39.1134 154.4C38.4534 153.18 38.1234 151.82 38.1234 150.32C38.1234 148.82 38.4534 147.46 39.1134 146.24C39.7734 145.02 40.6834 144.06 41.8434 143.36C43.0034 142.66 44.2934 142.31 45.7134 142.31C47.1334 142.31 48.4234 142.66 49.5834 143.36C50.7434 144.06 51.6534 145.02 52.3134 146.24C52.9734 147.46 53.3034 148.82 53.3034 150.32ZM51.5034 150.32C51.5034 149.12 51.2534 148.04 50.7534 147.08C50.2534 146.12 49.5534 145.37 48.6534 144.83C47.7734 144.27 46.7934 143.99 45.7134 143.99C44.6334 143.99 43.6534 144.27 42.7734 144.83C41.8934 145.37 41.1934 146.12 40.6734 147.08C40.1734 148.04 39.9234 149.12 39.9234 150.32C39.9234 151.5 40.1734 152.57 40.6734 153.53C41.1934 154.49 41.8934 155.25 42.7734 155.81C43.6534 156.35 44.6334 156.62 45.7134 156.62C46.7934 156.62 47.7734 156.35 48.6534 155.81C49.5534 155.27 50.2534 154.52 50.7534 153.56C51.2534 152.6 51.5034 151.52 51.5034 150.32ZM69.9452 142.67C70.2052 142.67 70.4152 142.76 70.5752 142.94C70.7552 143.1 70.8452 143.32 70.8452 143.6V156.59C70.8452 158.15 70.5152 159.48 69.8552 160.58C69.2152 161.7 68.3252 162.55 67.1852 163.13C66.0652 163.71 64.7752 164 63.3152 164C62.6152 164 61.8752 163.91 61.0952 163.73C60.3352 163.55 59.6752 163.32 59.1152 163.04C58.5752 162.76 58.2652 162.47 58.1852 162.17C58.0452 162.03 57.9752 161.87 57.9752 161.69C57.9752 161.49 58.0652 161.33 58.2452 161.21C58.3252 161.15 58.4252 161.12 58.5452 161.12C58.6652 161.12 58.8952 161.19 59.2352 161.33L59.8652 161.6C61.1052 162.08 62.2652 162.32 63.3452 162.32C65.1252 162.32 66.5152 161.81 67.5152 160.79C68.5352 159.79 69.0452 158.43 69.0452 156.71V154.85C68.5452 155.93 67.7552 156.78 66.6752 157.4C65.5952 158 64.4652 158.3 63.2852 158.3C61.9052 158.3 60.6552 157.96 59.5352 157.28C58.4352 156.58 57.5652 155.62 56.9252 154.4C56.2852 153.18 55.9652 151.81 55.9652 150.29C55.9652 148.79 56.2852 147.43 56.9252 146.21C57.5652 144.99 58.4352 144.04 59.5352 143.36C60.6552 142.66 61.8952 142.31 63.2552 142.31C64.5152 142.31 65.6652 142.63 66.7052 143.27C67.7652 143.89 68.5452 144.64 69.0452 145.52V143.6C69.0452 143.34 69.1252 143.12 69.2852 142.94C69.4652 142.76 69.6852 142.67 69.9452 142.67ZM63.4352 156.62C64.5352 156.62 65.5152 156.36 66.3752 155.84C67.2552 155.3 67.9352 154.55 68.4152 153.59C68.9152 152.61 69.1652 151.51 69.1652 150.29C69.1652 149.07 68.9152 147.98 68.4152 147.02C67.9352 146.06 67.2552 145.32 66.3752 144.8C65.5152 144.26 64.5352 143.99 63.4352 143.99C62.3552 143.99 61.3752 144.27 60.4952 144.83C59.6352 145.37 58.9552 146.12 58.4552 147.08C57.9752 148.04 57.7352 149.11 57.7352 150.29C57.7352 151.49 57.9752 152.57 58.4552 153.53C58.9552 154.49 59.6352 155.25 60.4952 155.81C61.3752 156.35 62.3552 156.62 63.4352 156.62ZM87.9628 149.45C87.9628 149.69 87.8728 149.9 87.6928 150.08C87.5128 150.24 87.3028 150.32 87.0628 150.32H75.7228C75.7228 151.52 75.9628 152.6 76.4428 153.56C76.9428 154.5 77.6428 155.25 78.5428 155.81C79.4628 156.35 80.5428 156.62 81.7828 156.62C82.7428 156.62 83.6028 156.42 84.3628 156.02C85.1228 155.62 85.7328 155.11 86.1928 154.49C86.4128 154.31 86.6228 154.22 86.8228 154.22C87.0228 154.22 87.2028 154.3 87.3628 154.46C87.5228 154.62 87.6028 154.8 87.6028 155C87.6028 155.22 87.5028 155.43 87.3028 155.63C86.6628 156.41 85.8528 157.05 84.8728 157.55C83.9128 158.05 82.8928 158.3 81.8128 158.3C80.2728 158.3 78.9128 157.97 77.7328 157.31C76.5528 156.65 75.6328 155.73 74.9728 154.55C74.3128 153.35 73.9828 151.97 73.9828 150.41C73.9828 148.77 74.3028 147.34 74.9428 146.12C75.6028 144.88 76.4728 143.94 77.5528 143.3C78.6328 142.64 79.7828 142.31 81.0028 142.31C82.2028 142.31 83.3228 142.59 84.3628 143.15C85.4228 143.71 86.2828 144.53 86.9428 145.61C87.6028 146.69 87.9428 147.97 87.9628 149.45ZM81.0028 144.05C79.8428 144.05 78.7628 144.45 77.7628 145.25C76.7828 146.05 76.1528 147.2 75.8728 148.7H86.1028V148.46C86.0028 147.56 85.7028 146.78 85.2028 146.12C84.7028 145.44 84.0728 144.93 83.3128 144.59C82.5728 144.23 81.8028 144.05 81.0028 144.05ZM94.6727 144.41V154.46C94.6727 155.22 94.8127 155.74 95.0927 156.02C95.3727 156.28 95.7427 156.41 96.2027 156.41C96.3227 156.41 96.4727 156.39 96.6527 156.35C96.8327 156.29 96.9727 156.26 97.0727 156.26C97.2527 156.26 97.4027 156.34 97.5227 156.5C97.6627 156.64 97.7327 156.81 97.7327 157.01C97.7327 157.29 97.5727 157.53 97.2527 157.73C96.9327 157.91 96.5527 158 96.1127 158C95.5727 158 95.0927 157.95 94.6727 157.85C94.2527 157.75 93.8427 157.45 93.4427 156.95C93.0627 156.45 92.8727 155.65 92.8727 154.55V144.41H90.6827C90.4427 144.41 90.2327 144.33 90.0527 144.17C89.8927 144.01 89.8127 143.81 89.8127 143.57C89.8127 143.33 89.8927 143.13 90.0527 142.97C90.2327 142.81 90.4427 142.73 90.6827 142.73H92.8727V139.4C92.8727 139.14 92.9527 138.93 93.1127 138.77C93.2927 138.59 93.5127 138.5 93.7727 138.5C94.0327 138.5 94.2427 138.59 94.4027 138.77C94.5827 138.93 94.6727 139.14 94.6727 139.4V142.73H97.6727C97.8927 142.73 98.0827 142.82 98.2427 143C98.4227 143.18 98.5127 143.38 98.5127 143.6C98.5127 143.84 98.4327 144.04 98.2727 144.2C98.1127 144.34 97.9127 144.41 97.6727 144.41H94.6727ZM108.829 142.55C110.629 142.55 111.969 143.12 112.849 144.26C113.729 145.38 114.169 146.83 114.169 148.61V157.1C114.169 157.36 114.079 157.58 113.899 157.76C113.739 157.92 113.529 158 113.269 158C113.009 158 112.789 157.92 112.609 157.76C112.449 157.58 112.369 157.36 112.369 157.1V148.61C112.369 147.31 112.059 146.26 111.439 145.46C110.819 144.64 109.849 144.23 108.529 144.23C107.689 144.23 106.889 144.43 106.129 144.83C105.389 145.23 104.789 145.77 104.329 146.45C103.869 147.11 103.639 147.83 103.639 148.61V157.1C103.639 157.36 103.549 157.58 103.369 157.76C103.209 157.92 102.999 158 102.739 158C102.479 158 102.259 157.92 102.079 157.76C101.919 157.58 101.839 157.36 101.839 157.1V136.7C101.839 136.44 101.919 136.23 102.079 136.07C102.259 135.89 102.479 135.8 102.739 135.8C102.999 135.8 103.209 135.89 103.369 136.07C103.549 136.23 103.639 136.44 103.639 136.7V145.49C104.179 144.63 104.929 143.93 105.889 143.39C106.849 142.83 107.829 142.55 108.829 142.55ZM131.85 149.45C131.85 149.69 131.76 149.9 131.58 150.08C131.4 150.24 131.19 150.32 130.95 150.32H119.61C119.61 151.52 119.85 152.6 120.33 153.56C120.83 154.5 121.53 155.25 122.43 155.81C123.35 156.35 124.43 156.62 125.67 156.62C126.63 156.62 127.49 156.42 128.25 156.02C129.01 155.62 129.62 155.11 130.08 154.49C130.3 154.31 130.51 154.22 130.71 154.22C130.91 154.22 131.09 154.3 131.25 154.46C131.41 154.62 131.49 154.8 131.49 155C131.49 155.22 131.39 155.43 131.19 155.63C130.55 156.41 129.74 157.05 128.76 157.55C127.8 158.05 126.78 158.3 125.7 158.3C124.16 158.3 122.8 157.97 121.62 157.31C120.44 156.65 119.52 155.73 118.86 154.55C118.2 153.35 117.87 151.97 117.87 150.41C117.87 148.77 118.19 147.34 118.83 146.12C119.49 144.88 120.36 143.94 121.44 143.3C122.52 142.64 123.67 142.31 124.89 142.31C126.09 142.31 127.21 142.59 128.25 143.15C129.31 143.71 130.17 144.53 130.83 145.61C131.49 146.69 131.83 147.97 131.85 149.45ZM124.89 144.05C123.73 144.05 122.65 144.45 121.65 145.25C120.67 146.05 120.04 147.2 119.76 148.7H129.99V148.46C129.89 147.56 129.59 146.78 129.09 146.12C128.59 145.44 127.96 144.93 127.2 144.59C126.46 144.23 125.69 144.05 124.89 144.05ZM142.729 142.31C143.129 142.31 143.489 142.39 143.809 142.55C144.129 142.71 144.289 142.95 144.289 143.27C144.289 143.55 144.209 143.78 144.049 143.96C143.889 144.12 143.699 144.2 143.479 144.2C143.379 144.2 143.179 144.15 142.879 144.05C142.599 143.95 142.329 143.9 142.069 143.9C141.329 143.9 140.589 144.19 139.849 144.77C139.129 145.33 138.529 146.06 138.049 146.96C137.589 147.86 137.359 148.77 137.359 149.69V157.1C137.359 157.36 137.269 157.58 137.089 157.76C136.929 157.92 136.719 158 136.459 158C136.199 158 135.979 157.92 135.799 157.76C135.639 157.58 135.559 157.36 135.559 157.1V143.66C135.559 143.4 135.639 143.19 135.799 143.03C135.979 142.85 136.199 142.76 136.459 142.76C136.719 142.76 136.929 142.85 137.089 143.03C137.269 143.19 137.359 143.4 137.359 143.66V146.3C137.819 145.16 138.509 144.22 139.429 143.48C140.369 142.72 141.469 142.33 142.729 142.31ZM159.389 149.45C159.389 149.69 159.299 149.9 159.119 150.08C158.939 150.24 158.729 150.32 158.489 150.32H147.149C147.149 151.52 147.389 152.6 147.869 153.56C148.369 154.5 149.069 155.25 149.969 155.81C150.889 156.35 151.969 156.62 153.209 156.62C154.169 156.62 155.029 156.42 155.789 156.02C156.549 155.62 157.159 155.11 157.619 154.49C157.839 154.31 158.049 154.22 158.249 154.22C158.449 154.22 158.629 154.3 158.789 154.46C158.949 154.62 159.029 154.8 159.029 155C159.029 155.22 158.929 155.43 158.729 155.63C158.089 156.41 157.279 157.05 156.299 157.55C155.339 158.05 154.319 158.3 153.239 158.3C151.699 158.3 150.339 157.97 149.159 157.31C147.979 156.65 147.059 155.73 146.399 154.55C145.739 153.35 145.409 151.97 145.409 150.41C145.409 148.77 145.729 147.34 146.369 146.12C147.029 144.88 147.899 143.94 148.979 143.3C150.059 142.64 151.209 142.31 152.429 142.31C153.629 142.31 154.749 142.59 155.789 143.15C156.849 143.71 157.709 144.53 158.369 145.61C159.029 146.69 159.369 147.97 159.389 149.45ZM152.429 144.05C151.269 144.05 150.189 144.45 149.189 145.25C148.209 146.05 147.579 147.2 147.299 148.7H157.529V148.46C157.429 147.56 157.129 146.78 156.629 146.12C156.129 145.44 155.499 144.93 154.739 144.59C153.999 144.23 153.229 144.05 152.429 144.05Z" fill="white"/>
</svg>
